<?xml version="1.0" encoding="UTF-8" standalone="no"?>
<svg
   xmlns:dc="http://purl.org/dc/elements/1.1/"
   xmlns:cc="http://creativecommons.org/ns#"
   xmlns:rdf="http://www.w3.org/1999/02/22-rdf-syntax-ns#"
   xmlns:svg="http://www.w3.org/2000/svg"
   xmlns="http://www.w3.org/2000/svg"
   xmlns:sodipodi="http://sodipodi.sourceforge.net/DTD/sodipodi-0.dtd"
   xmlns:inkscape="http://www.inkscape.org/namespaces/inkscape"
   aria-hidden="true"
   focusable="false"
   data-prefix="fas"
   data-icon="chart-bar"
   class="svg-inline--fa fa-chart-bar fa-w-16"
   role="img"
   viewBox="0 0 128 128"
   version="1.1"
   id="svg4"
   sodipodi:docname="chart-bar-solid.svg"
   width="128"
   height="128"
   inkscape:version="1.0.2 (e86c870879, 2021-01-15)">
  <metadata
     id="metadata10">
    <rdf:RDF>
      <cc:Work
         rdf:about="">
        <dc:format>image/svg+xml</dc:format>
        <dc:type
           rdf:resource="http://purl.org/dc/dcmitype/StillImage" />
        <dc:title></dc:title>
      </cc:Work>
    </rdf:RDF>
  </metadata>
  <defs
     id="defs8" />
  <sodipodi:namedview
     pagecolor="#ffffff"
     bordercolor="#666666"
     borderopacity="1"
     objecttolerance="10"
     gridtolerance="10"
     guidetolerance="10"
     inkscape:pageopacity="0"
     inkscape:pageshadow="2"
     inkscape:window-width="1920"
     inkscape:window-height="1001"
     id="namedview6"
     showgrid="false"
     inkscape:zoom="1.6210938"
     inkscape:cx="256"
     inkscape:cy="213.64177"
     inkscape:window-x="-9"
     inkscape:window-y="-9"
     inkscape:window-maximized="1"
     inkscape:current-layer="svg4" />
  <path
     fill="currentColor"
     d="m 75.103617,73.253016 h 5.551807 c 0.925302,0 1.850601,-0.925301 1.850601,-1.850603 V 51.971088 c 0,-0.925303 -0.925299,-1.850603 -1.850601,-1.850603 h -5.551807 c -0.925302,0 -1.850603,0.9253 -1.850603,1.850603 v 19.431325 c 0,0.925302 0.925301,1.850603 1.850603,1.850603 z m 13.87952,0 h 5.551806 c 0.925299,0 1.850598,-0.925301 1.850598,-1.850603 V 38.091568 c 0,-0.925301 -0.925299,-1.850602 -1.850598,-1.850602 h -5.551806 c -0.925306,0 -1.850605,0.925301 -1.850605,1.850602 v 33.310845 c 0,0.925302 0.925299,1.850603 1.850605,1.850603 z m -41.638558,0 h 5.551807 c 0.925302,0 1.850603,-0.925301 1.850603,-1.850603 V 61.2241 c 0,-0.925302 -0.925301,-1.850603 -1.850603,-1.850603 h -5.551807 c -0.925302,0 -1.850603,0.925301 -1.850603,1.850603 v 10.178313 c 0,0.925302 0.925301,1.850603 1.850603,1.850603 z m 13.879519,0 h 5.551807 c 0.925301,0 1.850602,-0.925301 1.850602,-1.850603 V 42.718075 c 0,-0.925302 -0.925301,-1.850603 -1.850602,-1.850603 h -5.551808 c -0.925302,0 -1.850602,0.925301 -1.850602,1.850603 v 28.684338 c 0,0.925302 0.9253,1.850603 1.850603,1.850603 z m 37.4747,9.253012 H 36.240963 V 38.554219 c 0,-1.278072 -1.03518,-2.313253 -2.313252,-2.313253 h -4.626505 c -1.278073,0 -2.313255,1.035181 -2.313255,2.313253 v 48.578319 c 0,2.554696 2.071809,4.626496 4.626507,4.626496 h 67.08434 c 1.278073,0 2.313252,-1.035178 2.313252,-2.313244 v -4.626513 c 0,-1.278068 -1.035179,-2.313249 -2.313252,-2.313249 z"
     id="path2"
     style="fill:#ffffff;stroke-width:0.144578" />
</svg>
