<?xml version="1.0" encoding="UTF-8" standalone="no"?>
<svg
   xmlns:dc="http://purl.org/dc/elements/1.1/"
   xmlns:cc="http://creativecommons.org/ns#"
   xmlns:rdf="http://www.w3.org/1999/02/22-rdf-syntax-ns#"
   xmlns:svg="http://www.w3.org/2000/svg"
   xmlns="http://www.w3.org/2000/svg"
   xmlns:sodipodi="http://sodipodi.sourceforge.net/DTD/sodipodi-0.dtd"
   xmlns:inkscape="http://www.inkscape.org/namespaces/inkscape"
   aria-hidden="true"
   focusable="false"
   data-prefix="fas"
   data-icon="compact-disc"
   class="svg-inline--fa fa-compact-disc fa-w-16"
   role="img"
   viewBox="0 0 128 128"
   version="1.1"
   id="svg4"
   sodipodi:docname="compact-disc-solid.svg"
   width="128"
   height="128"
   inkscape:version="1.0.2 (e86c870879, 2021-01-15)">
  <metadata
     id="metadata10">
    <rdf:RDF>
      <cc:Work
         rdf:about="">
        <dc:format>image/svg+xml</dc:format>
        <dc:type
           rdf:resource="http://purl.org/dc/dcmitype/StillImage" />
        <dc:title></dc:title>
      </cc:Work>
    </rdf:RDF>
  </metadata>
  <defs
     id="defs8">
    <filter
       style="color-interpolation-filters:sRGB;"
       inkscape:label="Invert"
       id="filter16">
      <feColorMatrix
         type="hueRotate"
         values="180"
         result="color1"
         id="feColorMatrix12" />
      <feColorMatrix
         values="-1 0 0 0 1 0 -1 0 0 1 0 0 -1 0 1 -0.21 -0.72 -0.07 1 0 "
         result="color2"
         id="feColorMatrix14" />
    </filter>
  </defs>
  <sodipodi:namedview
     pagecolor="#ffffff"
     bordercolor="#666666"
     borderopacity="1"
     objecttolerance="10"
     gridtolerance="10"
     guidetolerance="10"
     inkscape:pageopacity="0"
     inkscape:pageshadow="2"
     inkscape:window-width="1920"
     inkscape:window-height="1001"
     id="namedview6"
     showgrid="false"
     inkscape:zoom="1.6210938"
     inkscape:cx="248"
     inkscape:cy="256"
     inkscape:window-x="-9"
     inkscape:window-y="-9"
     inkscape:window-maximized="1"
     inkscape:current-layer="svg4" />
  <path
     fill="currentColor"
     d="M 64,12.163855 C 35.36471,12.163855 12.163855,35.36471 12.163855,64 12.163855,92.635289 35.36471,115.83615 64,115.83615 92.635289,115.83615 115.83615,92.635289 115.83615,64 115.83615,35.36471 92.635289,12.163855 64,12.163855 Z M 30.557326,64 H 23.868791 C 23.868791,41.86513 41.86513,23.868791 64,23.868791 v 6.688535 C 45.564726,30.557326 30.557326,45.564726 30.557326,64 Z M 64,84.065604 C 52.922114,84.065604 43.934395,75.077885 43.934395,64 43.934395,52.922114 52.922114,43.934395 64,43.934395 c 11.077885,0 20.065604,8.987719 20.065604,20.065605 0,11.077885 -8.987719,20.065604 -20.065604,20.065604 z m 0,-26.754139 c -3.699596,0 -6.688535,2.988939 -6.688535,6.688535 0,3.699595 2.988939,6.688534 6.688535,6.688534 3.699595,0 6.688534,-2.988939 6.688534,-6.688534 0,-3.699596 -2.988939,-6.688535 -6.688534,-6.688535 z"
     id="path2"
     style="stroke-width:0.209017;filter:url(#filter16)" />
</svg>
