<?xml version="1.0" encoding="UTF-8" standalone="no"?>
<svg
   xmlns:dc="http://purl.org/dc/elements/1.1/"
   xmlns:cc="http://creativecommons.org/ns#"
   xmlns:rdf="http://www.w3.org/1999/02/22-rdf-syntax-ns#"
   xmlns:svg="http://www.w3.org/2000/svg"
   xmlns="http://www.w3.org/2000/svg"
   xmlns:sodipodi="http://sodipodi.sourceforge.net/DTD/sodipodi-0.dtd"
   xmlns:inkscape="http://www.inkscape.org/namespaces/inkscape"
   aria-hidden="true"
   focusable="false"
   data-prefix="fab"
   data-icon="creative-commons"
   class="svg-inline--fa fa-creative-commons fa-w-16"
   role="img"
   viewBox="0 0 128 128"
   version="1.1"
   id="svg4"
   sodipodi:docname="creative-commons-brands.svg"
   width="128"
   height="128"
   inkscape:version="1.0.2 (e86c870879, 2021-01-15)">
  <metadata
     id="metadata10">
    <rdf:RDF>
      <cc:Work
         rdf:about="">
        <dc:format>image/svg+xml</dc:format>
        <dc:type
           rdf:resource="http://purl.org/dc/dcmitype/StillImage" />
        <dc:title></dc:title>
      </cc:Work>
    </rdf:RDF>
  </metadata>
  <defs
     id="defs8" />
  <sodipodi:namedview
     pagecolor="#ffffff"
     bordercolor="#666666"
     borderopacity="1"
     objecttolerance="10"
     gridtolerance="10"
     guidetolerance="10"
     inkscape:pageopacity="0"
     inkscape:pageshadow="2"
     inkscape:window-width="1920"
     inkscape:window-height="1001"
     id="namedview6"
     showgrid="false"
     inkscape:zoom="1.6210938"
     inkscape:cx="248"
     inkscape:cy="256"
     inkscape:window-x="-9"
     inkscape:window-y="-9"
     inkscape:window-maximized="1"
     inkscape:current-layer="svg4" />
  <path
     fill="currentColor"
     d="m 63.584216,56.109698 -6.365122,3.310937 c -1.806837,-3.751628 -4.836114,-3.81869 -5.261478,-3.81869 -4.240221,0 -6.365122,2.799351 -6.365122,8.399969 0,4.516133 1.764683,8.399969 6.365122,8.399969 2.772527,0 4.723067,-1.35848 5.857369,-4.073525 l 5.853537,2.96988 c -1.182204,2.205372 -4.922336,7.468768 -12.473494,7.468768 -4.330276,0 -14.171116,-1.977367 -14.171116,-14.763176 0,-11.245305 8.239021,-14.765092 13.916281,-14.765092 5.88611,-0.0019 10.097591,2.289682 12.644023,6.87096 z m 27.409111,0 -6.280811,3.310937 c -1.82025,-3.788033 -4.928087,-3.81869 -5.345786,-3.81869 -4.242137,0 -6.365122,2.799351 -6.365122,8.399969 0,4.512301 1.768516,8.399969 6.365122,8.399969 2.768696,0 4.723069,-1.35848 5.851621,-4.073525 l 5.939758,2.96988 c -0.40237,0.718519 -4.098434,7.468768 -12.471574,7.468768 -4.347523,0 -14.171118,-1.891144 -14.171118,-14.763176 0,-11.241473 8.233272,-14.765092 13.916281,-14.765092 5.884193,-0.0019 10.074595,2.289682 12.561629,6.87096 z M 63.915692,16.481925 c -27.365044,0 -47.433766,22.046087 -47.433766,47.518073 0,26.535393 21.766343,47.518082 47.433766,47.518082 24.895258,0 47.602378,-19.327221 47.602378,-47.518082 0,-26.416599 -20.428936,-47.518073 -47.602378,-47.518073 z m 0.166697,86.377515 c -21.563242,0 -39.029965,-17.826946 -39.029965,-38.859442 0,-20.199013 16.368826,-38.947575 39.033797,-38.947575 21.561326,0 38.861359,17.140995 38.861359,38.945659 -0.002,23.316429 -19.099208,38.861358 -38.865191,38.861358 z"
     id="path2"
     style="stroke-width:0.191605;fill:#ffffff" />
</svg>
