<?xml version="1.0" encoding="UTF-8" standalone="no"?>
<svg
   xmlns:dc="http://purl.org/dc/elements/1.1/"
   xmlns:cc="http://creativecommons.org/ns#"
   xmlns:rdf="http://www.w3.org/1999/02/22-rdf-syntax-ns#"
   xmlns:svg="http://www.w3.org/2000/svg"
   xmlns="http://www.w3.org/2000/svg"
   xmlns:sodipodi="http://sodipodi.sourceforge.net/DTD/sodipodi-0.dtd"
   xmlns:inkscape="http://www.inkscape.org/namespaces/inkscape"
   aria-hidden="true"
   focusable="false"
   data-prefix="fas"
   data-icon="fist-raised"
   class="svg-inline--fa fa-fist-raised fa-w-12"
   role="img"
   viewBox="0 0 128 128"
   version="1.1"
   id="svg4"
   sodipodi:docname="fist-raised-solid.svg"
   width="128"
   height="128"
   inkscape:version="1.0.2 (e86c870879, 2021-01-15)">
  <metadata
     id="metadata10">
    <rdf:RDF>
      <cc:Work
         rdf:about="">
        <dc:format>image/svg+xml</dc:format>
        <dc:type
           rdf:resource="http://purl.org/dc/dcmitype/StillImage" />
        <dc:title></dc:title>
      </cc:Work>
    </rdf:RDF>
  </metadata>
  <defs
     id="defs8" />
  <sodipodi:namedview
     pagecolor="#ffffff"
     bordercolor="#666666"
     borderopacity="1"
     objecttolerance="10"
     gridtolerance="10"
     guidetolerance="10"
     inkscape:pageopacity="0"
     inkscape:pageshadow="2"
     inkscape:window-width="1920"
     inkscape:window-height="1001"
     id="namedview6"
     showgrid="false"
     inkscape:zoom="1.7074888"
     inkscape:cx="71.282765"
     inkscape:cy="193.07617"
     inkscape:window-x="-9"
     inkscape:window-y="-9"
     inkscape:window-maximized="1"
     inkscape:current-layer="svg4" />
  <path
     fill="currentColor"
     d="M 76.214485,45.672548 V 18.181366 c 0,-1.687653 -1.366922,-3.054576 -3.054576,-3.054576 h -6.109151 c -1.687653,0 -3.054576,1.366923 -3.054576,3.054576 v 28.050551 c 0.958373,-0.339822 1.974019,-0.559369 3.048848,-0.559369 z M 100.65109,63.998094 C 100.64917,57.2513 95.179584,51.781699 88.434697,51.781699 H 67.02594 c -1.676199,0 -3.035486,1.349741 -3.035486,3.02594 v 0.10691 c 0,5.015232 4.066404,9.085453 9.081636,9.085453 h 6.731522 c 1.848019,0 2.520025,0.683462 2.520025,1.527289 v 3.092759 c 0,0.819007 -0.685371,1.485287 -1.504379,1.527287 -8.499357,0.435277 -12.248849,4.717411 -18.337,13.850593 l -1.204649,1.807926 a 1.5261425,1.5261425 0 0 1 -2.117202,0.423823 l -2.541026,-1.69529 a 1.5261425,1.5261425 0 0 1 -0.423822,-2.117203 l 1.204649,-1.807927 c 3.003029,-4.5055 5.765511,-8.258809 9.031998,-11.08811 -3.297032,-1.05192 -5.994605,-3.459307 -7.420711,-6.576884 -1.258102,0.651007 -2.665116,1.053829 -4.175222,1.053829 h -6.109151 c -2.355843,0 -4.4845,-0.918282 -6.109153,-2.382569 -1.626561,1.466197 -3.755218,2.384477 -6.109151,2.384477 h -6.109152 c -1.076737,0 -2.094294,-0.219547 -3.054576,-0.563186 v 14.877693 c 0,6.481428 2.57348,12.695582 7.157254,17.279351 l 5.05914,5.06105 v 12.2183 h 48.869395 v -12.21066 l 6.855613,-6.857523 A 18.334136,18.334136 0 0 0 100.65491,80.840261 Z M 94.540031,46.798922 V 24.290517 c 0,-1.687652 -1.36692,-3.054575 -3.054576,-3.054575 h -6.109151 c -1.687654,0 -3.054576,1.366923 -3.054576,3.054575 v 21.382031 h 6.109151 c 2.153477,0 4.188588,0.441005 6.109152,1.126374 z M 30.399666,57.890851 h 6.109152 c 1.687653,0 3.054576,-1.366922 3.054576,-3.054576 V 30.399669 c 0,-1.687653 -1.366923,-3.054576 -3.054576,-3.054576 h -6.109152 c -1.687653,0 -3.054576,1.366923 -3.054576,3.054576 v 24.436606 c 0,1.687654 1.366923,3.054576 3.054576,3.054576 z m 18.325546,0 h 6.109152 c 1.687653,0 3.054576,-1.366922 3.054576,-3.054576 V 24.290517 c 0,-1.687652 -1.366923,-3.054575 -3.054576,-3.054575 h -6.109152 c -1.687653,0 -3.054575,1.366923 -3.054575,3.054575 v 30.545758 c 0,1.687654 1.366922,3.054576 3.054575,3.054576 z"
     id="path2"
     style="fill:#ffffff;stroke-width:0.190912" />
</svg>
