<?xml version="1.0" encoding="UTF-8" standalone="no"?>
<svg
   xmlns:dc="http://purl.org/dc/elements/1.1/"
   xmlns:cc="http://creativecommons.org/ns#"
   xmlns:rdf="http://www.w3.org/1999/02/22-rdf-syntax-ns#"
   xmlns:svg="http://www.w3.org/2000/svg"
   xmlns="http://www.w3.org/2000/svg"
   xmlns:sodipodi="http://sodipodi.sourceforge.net/DTD/sodipodi-0.dtd"
   xmlns:inkscape="http://www.inkscape.org/namespaces/inkscape"
   aria-hidden="true"
   focusable="false"
   data-prefix="fas"
   data-icon="viruses"
   class="svg-inline--fa fa-viruses fa-w-20"
   role="img"
   viewBox="0 0 128 128"
   version="1.1"
   id="svg4"
   sodipodi:docname="viruses-solid.svg"
   width="128"
   height="128"
   inkscape:version="1.0.2 (e86c870879, 2021-01-15)">
  <metadata
     id="metadata10">
    <rdf:RDF>
      <cc:Work
         rdf:about="">
        <dc:format>image/svg+xml</dc:format>
        <dc:type
           rdf:resource="http://purl.org/dc/dcmitype/StillImage" />
        <dc:title></dc:title>
      </cc:Work>
    </rdf:RDF>
  </metadata>
  <defs
     id="defs8">
    <filter
       style="color-interpolation-filters:sRGB;"
       inkscape:label="Invert"
       id="filter30">
      <feColorMatrix
         type="hueRotate"
         values="180"
         result="color1"
         id="feColorMatrix26" />
      <feColorMatrix
         values="-1 0 0 0 1 0 -1 0 0 1 0 0 -1 0 1 -0.21 -0.72 -0.07 1 0 "
         result="color2"
         id="feColorMatrix28" />
    </filter>
  </defs>
  <sodipodi:namedview
     pagecolor="#ffffff"
     bordercolor="#666666"
     borderopacity="1"
     objecttolerance="10"
     gridtolerance="10"
     guidetolerance="10"
     inkscape:pageopacity="0"
     inkscape:pageshadow="2"
     inkscape:window-width="1920"
     inkscape:window-height="1001"
     id="namedview6"
     showgrid="false"
     inkscape:zoom="1.6210938"
     inkscape:cx="320"
     inkscape:cy="182.75995"
     inkscape:window-x="-9"
     inkscape:window-y="-9"
     inkscape:window-maximized="1"
     inkscape:current-layer="svg4" />
  <path
     fill="currentColor"
     d="m 117.18206,80.795081 h -2.12027 c -4.98753,0 -7.48567,-6.030172 -3.95889,-9.55696 l 1.50099,-1.499234 A 2.7993562,2.7993562 0 1 0 108.645,65.780002 l -1.49924,1.500983 c -3.52678,3.526787 -9.556955,1.028646 -9.556955,-3.958887 v -2.12027 a 2.7990362,2.7990362 0 0 0 -5.59807,0 v 2.12027 c 0,4.987533 -6.030176,7.485674 -9.55696,3.958887 l -1.499234,-1.500983 a 2.7993557,2.7993557 0 0 0 -3.958886,3.958885 l 1.500983,1.499234 c 3.526783,3.526788 1.028646,9.55696 -3.958886,9.55696 h -2.120269 a 2.7990371,2.7990371 0 0 0 0,5.598074 h 2.120269 c 4.987532,0 7.485669,6.030172 3.958886,9.55696 l -1.500983,1.499234 a 2.7993557,2.7993557 0 1 0 3.958886,3.958881 l 1.499234,-1.500978 c 3.526784,-3.526788 9.55696,-1.028645 9.55696,3.958888 v 2.12027 a 2.7990362,2.7990362 0 0 0 5.59807,0 v -2.12027 c 0,-4.987533 6.030175,-7.485676 9.556955,-3.958888 l 1.49924,1.500978 a 2.7993566,2.7993566 0 1 0 3.95889,-3.958881 l -1.50099,-1.499234 c -3.52678,-3.526788 -1.02864,-9.55696 3.95889,-9.55696 h 2.12027 a 2.7990371,2.7990371 0 0 0 0,-5.598074 z m -25.191325,5.598074 a 5.5980722,5.5980722 0 1 1 5.59807,-5.598074 5.5980722,5.5980722 0 0 1 -5.59807,5.598074 z M 68.638026,56.536185 h 2.827024 a 3.7314655,3.7314655 0 0 0 0,-7.462931 h -2.827024 c -6.647714,0 -9.980314,-8.047229 -5.277931,-12.742612 l 1.99956,-2.001311 a 3.7314651,3.7314651 0 0 0 -5.277932,-5.276183 l -1.999565,1.999561 c -4.702379,4.702381 -12.74261,1.373278 -12.74261,-5.277932 V 22.94775 a 3.7314651,3.7314651 0 0 0 -7.46293,0 v 2.827027 c 0,6.647711 -8.047229,9.980313 -12.742612,5.277932 l -1.999562,-1.999561 a 3.7314651,3.7314651 0 0 0 -5.277933,5.276183 l 1.999562,2.001311 c 4.702381,4.702381 1.373277,12.742612 -5.277933,12.742612 h -2.827026 a 3.7314655,3.7314655 0 0 0 0,7.462931 h 2.827026 c 6.647711,0 9.980314,8.047229 5.277933,12.74261 l -1.999562,1.999565 a 3.732062,3.732062 0 1 0 5.277933,5.277932 l 1.999562,-1.99956 c 4.70238,-4.702383 12.742612,-1.37328 12.742612,5.277931 v 2.827024 a 3.7314651,3.7314651 0 0 0 7.46293,0 v -2.827024 c 0,-6.647713 8.047229,-9.980314 12.74261,-5.277931 l 1.999565,1.99956 a 3.732062,3.732062 0 0 0 5.277932,-5.277932 l -1.99956,-1.999565 c -4.702383,-4.702379 -1.37328,-12.74261 5.277931,-12.74261 z M 36.01001,52.80472 a 5.5980722,5.5980722 0 1 1 5.598073,-5.598073 5.5980722,5.5980722 0 0 1 -5.598073,5.598073 z m 13.995181,5.598072 a 2.7990362,2.7990362 0 1 1 2.799036,-2.799036 2.7990362,2.7990362 0 0 1 -2.799036,2.799036 z"
     id="path2"
     style="fill:#000000;stroke-width:0.17494;filter:url(#filter30)" />
</svg>
